<svg version="1.1" id="Layer_1" xmlns="http://www.w3.org/2000/svg" xmlns:xlink="http://www.w3.org/1999/xlink" x="0px" y="0px" viewBox="0 0 60 60" style="enable-background:new 0 0 512 512;" xml:space="preserve" width="60" height="60"><path style="fill:#45B39C;" cx="256" cy="256" r="256" d="M60 30a30 30 0 0 1 -30 30A30 30 0 0 1 0 30a30 30 0 0 1 60 0"/><path style="opacity:0.1;enable-background:new    ;" d="M14.622 14.624c-1.594 1.594 -2.263 3.506 -1.488 4.281l0.006 0.006L26.159 31.93l-3.432 3.432 21.205 21.205a30.13 30.13 0 0 0 9.967 -8.44L18.902 13.13c-0.768 -0.768 -2.688 -0.1 -4.281 1.494"/><path transform="rotate(135 136.693 136.688)" style="fill:#EBF0F3;" cx="136.693" cy="136.688" rx="34.821" ry="16.848" d="M20.099 16.018a4.08 1.974 0 0 1 -4.081 1.974 4.08 1.974 0 0 1 -4.08 -1.974 4.08 1.974 0 0 1 8.162 0"/><path style="fill:#D5D6DB;" d="M41.133 46.904 13.14 18.911c1.62 1.62 7.391 -4.151 5.771 -5.771l27.992 27.992c1.62 1.62 -4.151 7.391 -5.771 5.771"/><path style="fill:#E56353;" d="m35.136 29.366 -3.205 -3.205c-1.931 2.656 -3.112 3.837 -5.771 5.771l3.205 3.205c2.537 -1.889 3.883 -3.232 5.771 -5.771"/><path style="fill:#D15241;" points="221.003,328.784 214.523,308.219 193.963,301.744 223.232,272.475 250.272,299.515 " d="m25.899 38.529 -0.759 -2.41 -2.409 -0.759 3.43 -3.43 3.168 3.169Z"/></svg>