<svg version="1.1" id="Layer_1" xmlns="http://www.w3.org/2000/svg" xmlns:xlink="http://www.w3.org/1999/xlink" x="0px" y="0px" viewBox="0 0 120 120" style="enable-background:new 0 0 460 460;" xml:space="preserve" width="120" height="120"><g id="XMLID_484_"><path id="XMLID_486_" style="fill:#FE843F;" d="M60 0C26.862 0 0 26.864 0 60c0 25.828 16.322 47.844 39.212 56.3l80.64 -60.49C117.7 24.628 91.728 0 60 0"/><path id="XMLID_487_" style="fill:#FC5A37;" d="M120 60q-0.002 -2.114 -0.148 -4.192L89.348 25.304 17.608 94.696 39.212 116.3A60 60 0 0 0 60 120c33.138 0 60 -26.864 60 -60"/><path id="XMLID_488_" style="fill:#12B5FF;" points="258.261,173 258.261,288 392.5,173 	" d="M67.372 45.13v30l35.02 -30Z"/><path id="XMLID_489_" style="fill:#12B5FF;" points="67.5,173 201.739,288 201.739,173 	" d="m17.608 45.13 35.02 30v-30Z"/><path id="XMLID_490_" style="fill:#FFFFFF;" points="117.5,327 117.5,97 230,97 240,327 	" d="M30.652 85.304v-60H60l2.608 60Z"/><path id="XMLID_491_" x="230" y="97" style="fill:#E0F8FF;" width="112.5" height="230" d="M60 25.304h29.348v60H60z"/><path id="XMLID_493_" style="fill:#7BE3FF;" points="230,288 201.739,268 124.62,305.5 67.5,363 392.5,363 335.38,305.5 
		258.261,268 	" d="m60 75.13 -7.372 -5.216 -20.118 9.782 -14.902 15h84.784l-14.902 -15 -20.118 -9.782Z"/><path id="XMLID_494_" style="fill:#487ED2;" points="220.286,180.588 230,155.09 240,139.265 230,123.44 220.655,123.44 
		180.655,228.44 199.345,235.56 212.667,200.588 230,200.588 240,190.588 230,180.588 	" d="M57.466 47.11 60 40.458l2.608 -4.128L60 32.202h-2.438l-10.434 27.392 4.876 1.856 3.474 -9.122H60l2.608 -2.61L60 47.11Z"/><path id="XMLID_495_" style="fill:#ADEEFF;" points="67.5,173 67.5,363 201.739,268 	" d="M17.608 45.13v49.566l35.02 -24.782Z"/><path id="XMLID_496_" style="fill:#48D9FF;" points="258.261,268 392.5,363 392.5,173 	" d="m67.372 69.914 35.02 24.782V45.13Z"/><path id="XMLID_497_" style="fill:#1D54BD;" points="239.345,123.44 230,123.44 230,155.09 239.714,180.588 230,180.588 
		230,200.588 247.333,200.588 260.655,235.56 279.345,228.44 	" d="M62.438 32.202H60v8.256l2.534 6.652H60v5.218h4.522l3.474 9.122 4.876 -1.856Z"/></g></svg>