<svg version="1.1" id="Layer_1" xmlns="http://www.w3.org/2000/svg" xmlns:xlink="http://www.w3.org/1999/xlink" x="0px" y="0px" viewBox="0 0 120 120" style="enable-background:new 0 0 512 512;" xml:space="preserve" width="120" height="120"><path style="fill:#45B39C;" cx="256" cy="256" r="256" d="M120 60A60 60 0 0 1 60 120A60 60 0 0 1 0 60A60 60 0 0 1 120 60z"/><path style="opacity:0.1;enable-background:new    ;" d="M29.244 29.249c-3.188 3.188 -4.525 7.013 -2.975 8.562l0.012 0.012 26.037 26.037 -6.863 6.863 42.41 42.41a60.258 60.258 0 0 0 19.934 -16.879l-69.994 -69.994c-1.537 -1.537 -5.375 -0.2 -8.562 2.988"/><path transform="rotate(135 136.693 136.688)" style="fill:#EBF0F3;" cx="136.693" cy="136.688" rx="34.821" ry="16.848" d="M40.199 32.036A8.161 3.949 0 0 1 32.037 35.985A8.161 3.949 0 0 1 23.876 32.036A8.161 3.949 0 0 1 40.199 32.036z"/><path style="fill:#D5D6DB;" d="m82.266 93.807 -55.985 -55.985c3.24 3.24 14.781 -8.301 11.541 -11.541l55.985 55.985c3.24 3.24 -8.301 14.781 -11.541 11.541"/><path style="fill:#E56353;" d="m70.272 58.731 -6.411 -6.411c-3.863 5.313 -6.225 7.675 -11.541 11.541l6.411 6.411c5.074 -3.779 7.766 -6.465 11.541 -11.541"/><path style="fill:#D15241;" points="221.003,328.784 214.523,308.219 193.963,301.744 223.232,272.475 250.272,299.515 " d="M51.798 77.059L50.279 72.239L45.46 70.721L52.32 63.861L58.657 70.199Z"/></svg>