<svg version="1.1" id="Layer_1" xmlns="http://www.w3.org/2000/svg" xmlns:xlink="http://www.w3.org/1999/xlink" x="0px" y="0px" viewBox="0 0 60 60" style="enable-background:new 0 0 460 460;" xml:space="preserve" width="60" height="60"><g id="XMLID_484_"><path id="XMLID_486_" style="fill:#FE843F;" d="M30 0C13.431 0 0 13.432 0 30c0 12.914 8.161 23.922 19.606 28.15l40.32 -30.245C58.85 12.314 45.864 0 30 0"/><path id="XMLID_487_" style="fill:#FC5A37;" d="M60 30c0 -0.705 -0.026 -1.403 -0.074 -2.096L44.674 12.652l-35.87 34.696 10.802 10.802C22.845 59.346 26.346 60 30 60c16.569 0 30 -13.432 30 -30"/><path id="XMLID_488_" style="fill:#12B5FF;" points="258.261,173 258.261,288 392.5,173 	" d="M33.686 22.565L33.686 37.565L51.196 22.565Z"/><path id="XMLID_489_" style="fill:#12B5FF;" points="67.5,173 201.739,288 201.739,173 	" d="M8.804 22.565L26.314 37.565L26.314 22.565Z"/><path id="XMLID_490_" style="fill:#FFFFFF;" points="117.5,327 117.5,97 230,97 240,327 	" d="M15.326 42.652L15.326 12.652L30 12.652L31.304 42.652Z"/><path id="XMLID_491_" x="230" y="97" style="fill:#E0F8FF;" width="112.5" height="230" d="M30 12.652H44.674V42.652H30V12.652z"/><path id="XMLID_493_" style="fill:#7BE3FF;" points="230,288 201.739,268 124.62,305.5 67.5,363 392.5,363 335.38,305.5 
		258.261,268 	" d="M30 37.565L26.314 34.957L16.255 39.848L8.804 47.348L51.196 47.348L43.745 39.848L33.686 34.957Z"/><path id="XMLID_494_" style="fill:#487ED2;" points="220.286,180.588 230,155.09 240,139.265 230,123.44 220.655,123.44 
		180.655,228.44 199.345,235.56 212.667,200.588 230,200.588 240,190.588 230,180.588 	" d="M28.733 23.555L30 20.229L31.304 18.165L30 16.101L28.781 16.101L23.564 29.797L26.002 30.725L27.739 26.164L30 26.164L31.304 24.859L30 23.555Z"/><path id="XMLID_495_" style="fill:#ADEEFF;" points="67.5,173 67.5,363 201.739,268 	" d="M8.804 22.565L8.804 47.348L26.314 34.957Z"/><path id="XMLID_496_" style="fill:#48D9FF;" points="258.261,268 392.5,363 392.5,173 	" d="M33.686 34.957L51.196 47.348L51.196 22.565Z"/><path id="XMLID_497_" style="fill:#1D54BD;" points="239.345,123.44 230,123.44 230,155.09 239.714,180.588 230,180.588 
		230,200.588 247.333,200.588 260.655,235.56 279.345,228.44 	" d="M31.219 16.101L30 16.101L30 20.229L31.267 23.555L30 23.555L30 26.164L32.261 26.164L33.998 30.725L36.436 29.797Z"/></g></svg>